<svg version="1.0" xmlns="http://www.w3.org/2000/svg" viewBox="430 480 1140 1190" preserveAspectRatio="xMidYMid meet">
  <path fill="#c9a84c" d="M971.68 1614.45 c-39.06 -24.02 -67.38 -42.97 -95.70 -64.45 -132.62 -100 -241.80 -228.32 -315.63 -371.29 -51.76 -100.20 -86.91 -203.32 -106.05 -311.52 -12.70 -71.29 -15.04 -96.09 -15.43 -166.99 l-0.39 -52.54 22.46 -13.28 c26.95 -16.02 101.56 -53.32 125.98 -63.09 30.66 -12.11 85.35 -31.64 103.52 -36.91 61.91 -17.58 89.45 -23.63 149.41 -32.42 61.33 -8.98 75.39 -9.96 156.25 -11.13 77.73 -0.98 111.52 0.59 164.06 8.40 141.41 20.51 277.93 68.16 399.80 139.26 l12.30 7.03 0 48.05 c0 26.37 -0.59 54.49 -1.17 62.50 l-1.37 14.65 -27.93 -11.33 c-75.39 -30.08 -168.75 -55.47 -246.88 -66.80 -86.52 -12.70 -207.62 -13.87 -294.53 -3.13 -103.52 12.89 -209.96 43.16 -310.94 88.48 -30.27 13.48 -80.66 38.48 -86.72 42.97 -3.32 2.54 -2.93 4.30 11.13 39.65 58.98 148.05 139.26 268.16 257.62 385.16 56.84 56.25 108.20 97.07 171.09 136.52 l32.62 20.51 6.45 -7.62 c72.07 -84.38 137.89 -194.73 181.05 -303.32 7.81 -19.53 28.32 -79.69 28.32 -82.81 0 -2.34 -45.51 0 -86.72 4.69 -97.07 11.13 -193.95 35.55 -276.95 69.73 -16.99 6.84 -31.64 12.11 -32.62 11.33 -3.71 -2.15 -30.86 -35.16 -47.46 -57.62 -41.80 -56.25 -87.11 -133.59 -81.05 -138.28 8.79 -6.64 111.72 -40.63 161.52 -52.93 90.82 -22.85 167.97 -31.84 275.39 -32.23 76.56 -0.20 132.42 5.08 204.49 19.53 50 9.96 140.43 34.77 145.90 39.84 4.30 4.10 -21.68 102.93 -41.99 160.16 -80.08 225.59 -224.80 413.28 -420.70 545.31 -27.54 18.55 -86.91 54.69 -89.26 54.10 -0.39 0 -13.67 -8.20 -29.88 -18.16z"/>
</svg>
